<svg version="1.1" xmlns="http://www.w3.org/2000/svg" xmlns:xlink="http://www.w3.org/1999/xlink" width="43.43198" height="43.43199" viewBox="0,0,43.43198,43.43199"><g transform="translate(-218.28401,-374.78401)"><g stroke-miterlimit="10"><path d="M228.23481,396.49999c0,-6.49773 5.26745,-11.76519 11.76519,-11.76519c6.49773,0 11.76519,5.26746 11.76519,11.76519c0,6.49773 -5.26746,11.76519 -11.76519,11.76519c-6.49773,0 -11.76519,-5.26746 -11.76519,-11.76519z" fill="none" stroke="#ffffff" stroke-width="13"/><path d="M234.93212,415.77921c0,-2.99426 0,-8.40449 0,-14.27542c1.33426,0.91328 3.03054,1.45993 4.87703,1.45993c2.02748,0 3.87385,-0.65906 5.25872,-1.73887c0,5.98219 0,11.5141 0,14.55435c0,1.53665 -0.40439,2.43678 -1.04604,2.43678c-2.17066,0 -7.05665,0 -8.18795,0c-0.45804,0 -0.90176,-0.90032 -0.90176,-2.43678z" fill="#ffffff" stroke="none" stroke-width="NaN"/><path d="M234.93212,377.00577c0,-1.20207 0.86996,-2.22176 1.62316,-2.22176c1.24954,0 5.15586,0 7.21406,0c0.783,0 1.29853,0.91026 1.29853,2.00676c0,1.81461 0,7.80325 0,14.68447c-1.38488,-1.07981 -3.23125,-1.73887 -5.25872,-1.73887c-1.8465,0 -3.54278,0.54665 -4.87703,1.45993c0,-6.62411 0,-12.35234 0,-14.19052z" fill="#ffffff" stroke="none" stroke-width="NaN"/><path d="M220.72078,391.43212c2.99426,0 8.40449,0 14.27542,0c-0.91328,1.33426 -1.45993,3.03053 -1.45993,4.87703c0,2.02748 0.65906,3.87384 1.73887,5.25872c-5.98219,0 -11.5141,0 -14.55435,0c-1.53665,0 -2.43678,-0.40439 -2.43678,-1.04604c0,-2.17066 0,-7.05665 0,-8.18795c0,-0.45804 0.90032,-0.90176 2.43678,-0.90176z" fill="#ffffff" stroke="none" stroke-width="NaN"/><path d="M259.49423,391.43212c1.20206,0 2.22176,0.86996 2.22176,1.62316c0,1.24954 0,5.15586 0,7.21406c0,0.78301 -0.91026,1.29853 -2.00676,1.29853c-1.81461,0 -7.80325,0 -14.68447,0c1.07981,-1.38488 1.73887,-3.23124 1.73887,-5.25872c0,-1.8465 -0.54665,-3.54278 -1.45993,-4.87703c6.62411,0 12.35235,0 14.19053,0z" fill="#ffffff" stroke="none" stroke-width="NaN"/><path d="M229.95106,379.284c2.11726,2.11726 5.94287,5.94287 10.09425,10.09425c-1.58925,0.29767 -3.17524,1.11059 -4.48091,2.41625c-1.43364,1.43364 -2.27319,3.20524 -2.48892,4.94804c-4.23005,-4.23005 -8.1417,-8.1417 -10.29148,-10.29148c-1.08658,-1.08658 -1.43711,-2.00901 -0.9834,-2.46272c1.53489,-1.53489 4.98981,-4.98981 5.78976,-5.78976c0.32388,-0.32388 1.27426,-0.00102 2.36071,1.08542z" fill="#ffffff" stroke="none" stroke-width="NaN"/><path d="M257.36803,406.70096c0.84999,0.84999 0.95588,2.18618 0.42328,2.71878c-0.88355,0.88355 -3.64575,3.64575 -5.10111,5.10111c-0.55367,0.55367 -1.56185,0.27455 -2.3372,-0.50079c-1.28312,-1.28312 -5.51773,-5.51773 -10.38349,-10.38349c1.7428,-0.21572 3.5144,-1.05527 4.94805,-2.48891c1.30567,-1.30567 2.11858,-2.89166 2.41625,-4.48091c4.68395,4.68395 8.73442,8.73442 10.03422,10.03422z" fill="#ffffff" stroke="none" stroke-width="NaN"/><path d="M222.784,406.54893c2.11726,-2.11726 5.94287,-5.94287 10.09425,-10.09425c0.29767,1.58925 1.11059,3.17524 2.41625,4.48091c1.43364,1.43364 3.20524,2.27319 4.94804,2.48892c-4.23005,4.23005 -8.1417,8.1417 -10.29148,10.29148c-1.08658,1.08658 -2.00901,1.43711 -2.46272,0.9834c-1.53489,-1.53489 -4.98981,-4.98981 -5.78976,-5.78976c-0.32388,-0.32388 -0.00102,-1.27426 1.08542,-2.36071z" fill="#ffffff" stroke="none" stroke-width="NaN"/><path d="M250.20096,379.13196c0.84999,-0.84999 2.18618,-0.95588 2.71878,-0.42328c0.88355,0.88355 3.64575,3.64575 5.10111,5.10111c0.55367,0.55367 0.27455,1.56185 -0.50079,2.3372c-1.28312,1.28312 -5.51773,5.51773 -10.38349,10.38349c-0.21572,-1.7428 -1.05527,-3.5144 -2.48891,-4.94805c-1.30567,-1.30567 -2.89166,-2.11858 -4.48091,-2.41625c4.68395,-4.68395 8.73442,-8.73442 10.03422,-10.03422z" fill="#ffffff" stroke="none" stroke-width="NaN"/></g></g></svg>