<svg version="1.1" xmlns="http://www.w3.org/2000/svg" xmlns:xlink="http://www.w3.org/1999/xlink" width="338.95006" height="153.79052" viewBox="0,0,338.95006,153.79052"><g transform="translate(-70.52497,-319.60474)"><g stroke="none" stroke-miterlimit="10"><path d="M409.47503,348.40551v96.18898c0,7.82934 -2.79619,14.81981 -8.38857,20.4122c-5.59238,5.59238 -12.30324,8.38857 -20.4122,8.38857h-281.34852c-7.82934,0 -14.81981,-2.79619 -20.4122,-8.38857c-5.59238,-5.59238 -8.38857,-12.30324 -8.38857,-20.4122v-96.18898c0,-7.82934 2.79619,-14.81981 8.38857,-20.4122c5.59238,-5.59238 12.30324,-8.38857 20.4122,-8.38857h281.34852c7.82934,0 14.81981,2.79619 20.4122,8.38857c5.59238,5.59238 8.38857,12.58286 8.38857,20.4122z" fill="#ffffff"/><text transform="translate(94.34791,417.7838) scale(1.77365,1.77365)" font-size="40" xml:space="preserve" fill="#000000" font-family="Scratch" font-weight="normal" text-anchor="start"><tspan x="0" dy="0">Pray Time</tspan></text></g></g></svg>